<?xml version="1.0" encoding="utf-8"?>
<!-- Generator: Adobe Illustrator 23.0.6, SVG Export Plug-In . SVG Version: 6.00 Build 0)  -->
<svg version="1.1" id="Vrstva_1" xmlns="http://www.w3.org/2000/svg" xmlns:xlink="http://www.w3.org/1999/xlink" x="0px" y="0px"
	 viewBox="0 0 1901 539" style="enable-background:new 0 0 1901 539;" xml:space="preserve">
<style type="text/css">
	.st0{fill:#2C96F2;}
	.st1{fill:#FFFFFF;}
</style>
<title>paymont_rgb_ronda_final</title>
<g id="Page-1">
	<g id="paymont_rgb_ronda_final">
		<g id="Group" transform="translate(0.000000, 101.000000)">
			<path id="Path" class="st0" d="M1179.6,180.3V94.6h0c-0.3-26.4-9.6-51.9-26-72.5c-22.2-26.8-52-40.4-90-40.4
				c-32,0-62.3,11.9-81.9,31.9c-11,11-19.6,24.4-25.3,39c-17.3-10.2-37.6-15.4-60.9-15.4c-32,0-62.3,11.9-81.9,31.9
				c-21.3,21.3-33.7,51.5-33.7,81.8c0,1,0.1,2.1,0.1,3.1h64.5c0-1-0.3-2-0.3-3.1c0-29.8,23-53.7,51.6-53.7
				c24.6,0,45.3,18.6,50.1,43.2v40.3h66.3V98.5c0,0,0.1-2,0.1-3.1c0-29.8,23-53.7,51.6-53.7c28.2,0,51.2,24.3,51.2,54.1
				c0,0.9,0.1,2.7,0.1,2.7v81.8H1179.6z"/>
			<path id="Shape" class="st1" d="M1882.3,177.4c-15.3,3-26.9,5.1-36.7,5.1c-20.5,0-32.4-10.2-32.4-31.1V92.2h70.4V33h-70.4v-70.3
				h-69.1V33h-40.5v59.2h40.5v61.3c0,55.8,33.3,92.4,83.1,92.4c20.5,0,35.8-1.7,62.7-10.2L1882.3,177.4z M1594.5,26.7
				c-22.2,0-40.5,7.2-57.2,20.4V33h-69.1v206.6h69.1V110.2c11.9-13.6,25.6-20.9,38.4-20.9c22.6,0,37.5,14.1,37.5,43.4v106.9h69.5
				v-118C1682.8,62.9,1647,26.7,1594.5,26.7 M1322.5,186.4c-28.2,0-46.9-22.2-46.9-49.8c0-26.8,18.8-48.5,46.9-48.5
				c27.7,0,46.5,21.7,46.5,48.5C1369,164.2,1350.2,186.4,1322.5,186.4 M1322.1,28.4c-65.2,0-112.1,45.6-112.1,107.8
				c0,63,46.9,109.9,112.1,109.9s112.1-46.9,112.1-109.9C1434.2,73.9,1387.3,28.4,1322.1,28.4 M784.4,33h-72.5l-53.7,127.3L598.9,33
				h-73.3l98.1,209.1L584.4,335h72.5L784.4,33z M387,187.2c-28.2,0-48.6-22.6-48.6-51.1s20.5-51.5,48.6-51.5
				c15.3,0,30.3,4.7,43.1,19.6v63.9C417.3,183,402.4,187.2,387,187.2 M499.1,33h-69.1v11.1c-15.3-9.8-34.1-15.8-56.7-15.8
				c-55.9,0-102.7,46-102.7,107.8c0,61.3,46.9,107.8,102.7,107.8c22.6,0,41.4-6,56.7-15.8v11.5h69.1V33z M126.1,187.2
				c-15.3,0-30.3-4.3-43.1-19.2v-63.9c12.8-14.9,27.7-19.6,43.1-19.6c28.2,0,48.6,23,48.6,51.5C174.6,164.7,154.2,187.2,126.1,187.2
				 M139.7,28.4c-22.6,0-41.4,6-56.7,15.8V33.1H13.9v302.4H83V228.1c15.3,9.8,34.1,15.8,56.7,15.8c55.9,0,102.7-46.4,102.7-107.8
				C242.5,74.4,195.5,28.4,139.7,28.4"/>
			<path class="st1" d="M1864.7,335.8c5.2,0,8.7,2.8,9.5,8.1h-19.7C1855.7,339,1859.2,335.8,1864.7,335.8 M1889.3,347.5
				c0-14.5-10.7-24.1-24.7-24.1c-15.4,0-25.6,10.5-25.6,25.1c0,14.7,10.6,25.2,26.3,25.2c11.9,0,21.2-6.2,23.5-16.2H1873
				c-1.4,2.2-4,3.5-7.4,3.5c-6.1,0-9.5-3.4-10.8-7.7h34.4l-0.1-0.3C1889.3,351.2,1889.3,349.3,1889.3,347.5 M1795.2,323
				c-7.2,0-12.1,2-17.1,6.5c-3.6-4.2-8.7-6.5-14.8-6.5c-5.4,0-8.8,1.6-12.1,4.4v-2.9h-16.1v48.2h16.1v-30.8c2.4-3.1,4.8-4.3,7.3-4.3
				c5.3,0,8.7,3.3,8.7,10.1v24.9h16.1v-27.5c0-1.2-0.1-2.4-0.2-3.6c2.4-2.9,4.9-4,7.4-4c5.4,0,8.7,3.3,8.7,10.1v24.9h16.2v-27.5
				C1815.3,331.5,1806.7,323,1795.2,323 M1707.9,324.5h-16.1v48.2h16.1V324.5z M1699.8,316.9c5.2,0,9.4-3.9,9.4-9
				c0-5.3-4.3-9.1-9.4-9.1c-5.3,0-9.4,3.9-9.4,9.1C1690.4,313.1,1694.5,316.9,1699.8,316.9 M1665.7,358.2c-3.6,0.7-6.3,1.2-8.6,1.2
				c-4.8,0-7.5-2.4-7.5-7.3v-13.8h16.4v-13.8h-16.4v-16.4h-16.1v16.4h-9.4v13.8h9.4v14.3c0,13,7.8,21.6,19.4,21.6
				c4.8,0,8.3-0.4,14.6-2.4L1665.7,358.2z M1540.6,323c-5.2,0-9.5,1.7-13.3,4.8v-3.3h-16.1v48.2h16.1v-30.2c2.8-3.2,6-4.9,8.9-4.9
				c5.3,0,8.8,3.3,8.8,10.1v24.9h16.2v-27.5C1561.2,331.5,1552.8,323,1540.6,323 M1461.3,360.2c-6.6,0-10.9-5.2-10.9-11.6
				c0-6.3,4.4-11.3,10.9-11.3c6.5,0,10.8,5.1,10.8,11.3C1472.1,355.1,1467.7,360.2,1461.3,360.2 M1461.2,323.4
				c-15.2,0-26.1,10.6-26.1,25.1c0,14.7,10.9,25.6,26.1,25.6s26.1-10.9,26.1-25.6C1487.3,334,1476.4,323.4,1461.2,323.4
				 M1324.7,356.1c1,12.8,11.2,18.1,23.9,18.1c12.5,0,22.6-5.2,22.6-16.3c0-8.5-6-12.9-15-14.6l-9-1.5c-3.8-0.7-5-2.2-5-3.8
				c0-1.9,1.9-3.5,6.1-3.5c4.5,0,7.9,1.7,8.1,5.4h14.3c-0.7-12.7-12.3-16.7-22.6-16.7c-12.8,0-21.5,6-21.5,16.1
				c0,8.4,5.8,13.1,14.1,14.5l9.7,1.7c3.2,0.5,4.7,1.8,4.7,3.4c0,2.1-2.6,3.4-6.9,3.4c-5.1,0-8.6-1.9-9.3-6.1L1324.7,356.1z
				 M1302.6,358.2c-3.6,0.7-6.3,1.2-8.6,1.2c-4.8,0-7.5-2.4-7.5-7.3v-13.8h16.4v-13.8h-16.4v-16.4h-16.1v16.4h-9.4v13.8h9.4v14.3
				c0,13,7.8,21.6,19.4,21.6c4.8,0,8.3-0.4,14.6-2.4L1302.6,358.2z M1219.5,323c-5.2,0-9.5,1.7-13.3,4.8v-3.3h-16.1v48.2h16.1v-30.2
				c2.8-3.2,6-4.9,8.9-4.9c5.3,0,8.8,3.3,8.8,10.1v24.9h16.2v-27.5C1240.1,331.5,1231.8,323,1219.5,323 M1141.6,335.8
				c5.2,0,8.7,2.8,9.5,8.1h-19.7C1132.6,339,1136.1,335.8,1141.6,335.8 M1166.2,347.5c0-14.5-10.6-24.1-24.7-24.1
				c-15.4,0-25.6,10.5-25.6,25.1c0,14.7,10.6,25.2,26.3,25.2c11.9,0,21.2-6.2,23.4-16.2h-15.9c-1.4,2.2-4,3.5-7.3,3.5
				c-6.2,0-9.5-3.4-10.8-7.7h34.4l-0.1-0.3C1166.2,351.2,1166.2,349.3,1166.2,347.5 M1072,323c-7.2,0-12.1,2-17.1,6.5
				c-3.6-4.2-8.7-6.5-14.8-6.5c-5.4,0-8.8,1.6-12.1,4.4v-2.9H1012v48.2h16.1v-30.8c2.4-3.1,4.8-4.3,7.3-4.3c5.3,0,8.7,3.3,8.7,10.1
				v24.9h16.1v-27.5c0-1.2-0.1-2.4-0.2-3.6c2.4-2.9,4.9-4,7.4-4c5.4,0,8.7,3.3,8.7,10.1v24.9h16.2v-27.5
				C1092.1,331.5,1083.6,323,1072,323 M989.6,324.5h-16.9l-12.5,29.7l-13.8-29.7h-17.1l22.9,48.8l-9.2,21.6h16.9L989.6,324.5z
				 M881,360.5c-6.6,0-11.4-5.3-11.4-11.9c0-6.7,4.8-12,11.4-12c3.6,0,7.1,1.1,10.1,4.6V356C888.1,359.4,884.6,360.5,881,360.5
				 M907.2,324.5h-16.1v2.6c-3.6-2.3-8-3.7-13.2-3.7c-13,0-24,10.7-24,25.1c0,14.3,10.9,25.1,24,25.1c5.3,0,9.6-1.4,13.2-3.7v2.7
				h16.1V324.5z M804.3,360.5c-3.6,0-7.1-1-10.1-4.5v-14.9c3-3.5,6.5-4.6,10.1-4.6c6.6,0,11.4,5.4,11.4,12
				C815.6,355.2,810.8,360.5,804.3,360.5 M807.4,323.4c-5.3,0-9.6,1.4-13.2,3.7v-2.6h-16.1V395h16.1v-25c3.6,2.3,8,3.7,13.2,3.7
				c13,0,24-10.8,24-25.1C831.4,334.1,820.5,323.4,807.4,323.4"/>
		</g>
	</g>
</g>
</svg>
