<?xml version="1.0" encoding="utf-8"?>
<!-- Generator: Adobe Illustrator 23.0.6, SVG Export Plug-In . SVG Version: 6.00 Build 0)  -->
<svg version="1.1" id="Vrstva_1" xmlns="http://www.w3.org/2000/svg" xmlns:xlink="http://www.w3.org/1999/xlink" x="0px" y="0px"
	 viewBox="0 0 256 256" style="enable-background:new 0 0 256 256;" xml:space="preserve">
<style type="text/css">
	.st0{fill:#F04F59;}
	.st1{fill:#243E90;}
	.st2{fill:#FFCD05;}
</style>
<circle class="st0" cx="133.5" cy="128.8" r="74.6"/>
<rect x="-65" y="-1.6" class="st1" width="392.9" height="261.9"/>
<g transform="translate(450,300)">
	<path id="s" class="st2" d="M-318.5-99.7l9.6,29.6l-25.2-18.3h31.1l-25.2,18.3L-318.5-99.7z"/>
	<g>
		<path class="st2" d="M-318.5-274.3l9.6,29.6l-25.2-18.3h31.1l-25.2,18.3L-318.5-274.3z"/>
	</g>
	<g>
		<polygon class="st2" points="-358.5,-100.1 -362.2,-111.4 -365.8,-100.1 -377.7,-100.1 -368.1,-93.1 -371.8,-81.8 -362.2,-88.8 
			-352.6,-81.8 -356.2,-93.1 -346.6,-100.1 		"/>
		<polygon class="st2" points="-390.5,-132.1 -394.1,-143.4 -397.8,-132.1 -409.7,-132.1 -400.1,-125.1 -403.8,-113.8 
			-394.1,-120.7 -384.5,-113.8 -388.2,-125.1 -378.6,-132.1 		"/>
		<polygon class="st2" points="-405.8,-164.4 -396.2,-157.4 -399.9,-168.7 -390.3,-175.7 -402.2,-175.7 -405.8,-187 -409.5,-175.7 
			-421.4,-175.7 -411.8,-168.7 -415.4,-157.4 		"/>
		<polygon class="st2" points="-394.1,-230.7 -397.8,-219.4 -409.7,-219.4 -400.1,-212.4 -403.8,-201.1 -394.1,-208.1 
			-384.5,-201.1 -388.2,-212.4 -378.6,-219.4 -390.5,-219.4 		"/>
		<polygon class="st2" points="-368.1,-244.3 -371.8,-233 -362.2,-240 -352.6,-233 -356.2,-244.3 -346.6,-251.3 -358.5,-251.3 
			-362.2,-262.6 -365.8,-251.3 -377.7,-251.3 		"/>
	</g>
	<g transform="scale(-1,1)">
		<g>
			<polygon class="st2" points="-271.2,-100.1 -274.9,-111.4 -278.5,-100.1 -290.4,-100.1 -280.8,-93.1 -284.5,-81.8 -274.9,-88.8 
				-265.2,-81.8 -268.9,-93.1 -259.3,-100.1 			"/>
			<polygon class="st2" points="-239.2,-132.1 -242.9,-143.4 -246.6,-132.1 -258.5,-132.1 -248.9,-125.1 -252.5,-113.8 
				-242.9,-120.7 -233.3,-113.8 -237,-125.1 -227.3,-132.1 			"/>
			<polygon class="st2" points="-215.6,-175.7 -227.5,-175.7 -231.2,-187 -234.9,-175.7 -246.8,-175.7 -237.2,-168.7 -240.8,-157.4 
				-231.2,-164.4 -221.6,-157.4 -225.3,-168.7 			"/>
			<polygon class="st2" points="-248.9,-212.4 -252.5,-201.1 -242.9,-208.1 -233.3,-201.1 -237,-212.4 -227.3,-219.4 -239.2,-219.4 
				-242.9,-230.7 -246.6,-219.4 -258.5,-219.4 			"/>
			<polygon class="st2" points="-274.9,-262.6 -278.5,-251.3 -290.4,-251.3 -280.8,-244.3 -284.5,-233 -274.9,-240 -265.2,-233 
				-268.9,-244.3 -259.3,-251.3 -271.2,-251.3 			"/>
		</g>
	</g>
</g>
</svg>
