<?xml version="1.0" encoding="utf-8"?>
<!-- Generator: Adobe Illustrator 23.0.6, SVG Export Plug-In . SVG Version: 6.00 Build 0)  -->
<svg version="1.1" id="Vrstva_1" xmlns="http://www.w3.org/2000/svg" xmlns:xlink="http://www.w3.org/1999/xlink" x="0px" y="0px"
	 viewBox="0 0 256 256" style="enable-background:new 0 0 256 256;" xml:space="preserve">
<style type="text/css">
	.st0{fill:#F5F6F6;}
	.st1{fill:#F04F59;}
	.st2{fill:#42489B;}
</style>
<path class="st0" d="M338.3,257.1H-38.8c-3.7,0-6.7-3-6.7-6.7V8c0-3.7,3-6.7,6.7-6.7h377.1c3.7,0,6.7,3,6.7,6.7v242.4
	C345,254.1,342,257.1,338.3,257.1z"/>
<g>
	<path class="st1" d="M345,21H-45.5V8c0-3.7,3-6.7,6.7-6.7h377.1c3.7,0,6.7,3,6.7,6.7L345,21L345,21z"/>
	<rect x="-45.5" y="80" class="st1" width="390.5" height="19.7"/>
	<rect x="-45.5" y="40.6" class="st1" width="390.5" height="19.7"/>
	<path class="st1" d="M345,139.1H-38.8c-3.7,0-6.7-3-6.7-6.7v-12.9H345V139.1z"/>
	<rect x="-45.5" y="198.1" class="st1" width="390.5" height="19.7"/>
	<path class="st1" d="M338.3,257.1H-38.8c-3.7,0-6.7-3-6.7-6.7v-12.9H345v12.9C345,254.1,342,257.1,338.3,257.1z"/>
	<rect x="-45.5" y="158.7" class="st1" width="390.5" height="19.7"/>
</g>
<path class="st2" d="M129.5,1.3H-38.8c-3.7,0-6.7,3-6.7,6.7v124.3c0,3.7,3,6.7,6.7,6.7h168.3c3.7,0,6.7-3,6.7-6.7V8
	C136.3,4.3,133.3,1.3,129.5,1.3z"/>
<g>
	<path class="st0" d="M-26.6,16.7l1.5,4.5l4.7,0c0.6,0,0.9,0.8,0.4,1.1l-3.8,2.8l1.4,4.5c0.2,0.6-0.5,1.1-1,0.7l-3.8-2.7l-3.8,2.7
		c-0.5,0.4-1.2-0.1-1-0.7l1.4-4.5l-3.8-2.8c-0.5-0.4-0.2-1.1,0.4-1.1l4.7,0l1.5-4.5C-27.6,16.2-26.8,16.2-26.6,16.7z"/>
	<path class="st0" d="M-26.6,40.1l1.5,4.5l4.7,0c0.6,0,0.9,0.8,0.4,1.1l-3.8,2.8l1.4,4.5c0.2,0.6-0.5,1.1-1,0.7l-3.8-2.7l-3.8,2.7
		c-0.5,0.4-1.2-0.1-1-0.7l1.4-4.5l-3.8-2.8c-0.5-0.4-0.2-1.1,0.4-1.1l4.7,0l1.5-4.5C-27.6,39.5-26.8,39.5-26.6,40.1z"/>
	<path class="st0" d="M-26.6,63.5l1.5,4.5l4.7,0c0.6,0,0.9,0.8,0.4,1.1l-3.8,2.8l1.4,4.5c0.2,0.6-0.5,1.1-1,0.7l-3.8-2.7l-3.8,2.7
		c-0.5,0.4-1.2-0.1-1-0.7l1.4-4.5l-3.8-2.8c-0.5-0.4-0.2-1.1,0.4-1.1l4.7,0l1.5-4.5C-27.6,62.9-26.8,62.9-26.6,63.5z"/>
	<path class="st0" d="M-26.6,86.9l1.5,4.5l4.7,0c0.6,0,0.9,0.8,0.4,1.1l-3.8,2.8l1.4,4.5c0.2,0.6-0.5,1.1-1,0.7l-3.8-2.7l-3.8,2.7
		c-0.5,0.4-1.2-0.1-1-0.7l1.4-4.5l-3.8-2.8c-0.5-0.4-0.2-1.1,0.4-1.1l4.7,0l1.5-4.5C-27.6,86.3-26.8,86.3-26.6,86.9z"/>
	<path class="st0" d="M-26.6,110.3l1.5,4.5l4.7,0c0.6,0,0.9,0.8,0.4,1.1l-3.8,2.8l1.4,4.5c0.2,0.6-0.5,1.1-1,0.7l-3.8-2.7l-3.8,2.7
		c-0.5,0.4-1.2-0.1-1-0.7l1.4-4.5l-3.8-2.8c-0.5-0.4-0.2-1.1,0.4-1.1l4.7,0l1.5-4.5C-27.6,109.7-26.8,109.7-26.6,110.3z"/>
	<path class="st0" d="M-8.5,28.2l1.5,4.5l4.7,0c0.6,0,0.9,0.8,0.4,1.1l-3.8,2.8l1.4,4.5c0.2,0.6-0.5,1.1-1,0.7l-3.8-2.7l-3.8,2.7
		c-0.5,0.4-1.2-0.1-1-0.7l1.4-4.5l-3.8-2.8c-0.5-0.4-0.2-1.1,0.4-1.1l4.7,0l1.5-4.5C-9.5,27.6-8.7,27.6-8.5,28.2z"/>
	<path class="st0" d="M-8.5,51.6l1.5,4.5l4.7,0c0.6,0,0.9,0.8,0.4,1.1L-5.7,60l1.4,4.5c0.2,0.6-0.5,1.1-1,0.7l-3.8-2.7l-3.8,2.7
		c-0.5,0.4-1.2-0.1-1-0.7l1.4-4.5l-3.8-2.8c-0.5-0.4-0.2-1.1,0.4-1.1l4.7,0l1.5-4.5C-9.5,51-8.7,51-8.5,51.6z"/>
	<path class="st0" d="M-8.5,75l1.5,4.5l4.7,0c0.6,0,0.9,0.8,0.4,1.1l-3.8,2.8l1.4,4.5c0.2,0.6-0.5,1.1-1,0.7l-3.8-2.7l-3.8,2.7
		c-0.5,0.4-1.2-0.1-1-0.7l1.4-4.5l-3.8-2.8c-0.5-0.4-0.2-1.1,0.4-1.1l4.7,0l1.5-4.5C-9.5,74.4-8.7,74.4-8.5,75z"/>
	<path class="st0" d="M-8.5,98.3l1.5,4.5l4.7,0c0.6,0,0.9,0.8,0.4,1.1l-3.8,2.8l1.4,4.5c0.2,0.6-0.5,1.1-1,0.7l-3.8-2.7l-3.8,2.7
		c-0.5,0.4-1.2-0.1-1-0.7l1.4-4.5l-3.8-2.8c-0.5-0.4-0.2-1.1,0.4-1.1l4.7,0l1.5-4.5C-9.5,97.8-8.7,97.8-8.5,98.3z"/>
	<path class="st0" d="M9.7,16.7l1.5,4.5l4.7,0c0.6,0,0.9,0.8,0.4,1.1l-3.8,2.8l1.4,4.5c0.2,0.6-0.5,1.1-1,0.7l-3.8-2.7l-3.8,2.7
		c-0.5,0.4-1.2-0.1-1-0.7l1.4-4.5l-3.8-2.8c-0.5-0.4-0.2-1.1,0.4-1.1l4.7,0l1.5-4.5C8.7,16.2,9.5,16.2,9.7,16.7z"/>
	<path class="st0" d="M9.7,40.1l1.5,4.5l4.7,0c0.6,0,0.9,0.8,0.4,1.1l-3.8,2.8l1.4,4.5c0.2,0.6-0.5,1.1-1,0.7L9.1,51l-3.8,2.7
		c-0.5,0.4-1.2-0.1-1-0.7l1.4-4.5l-3.8-2.8c-0.5-0.4-0.2-1.1,0.4-1.1l4.7,0l1.5-4.5C8.7,39.5,9.5,39.5,9.7,40.1z"/>
	<path class="st0" d="M9.7,63.5l1.5,4.5l4.7,0c0.6,0,0.9,0.8,0.4,1.1L12.5,72l1.4,4.5c0.2,0.6-0.5,1.1-1,0.7l-3.8-2.7l-3.8,2.7
		c-0.5,0.4-1.2-0.1-1-0.7L5.7,72l-3.8-2.8C1.4,68.8,1.7,68,2.3,68L7,68l1.5-4.5C8.7,62.9,9.5,62.9,9.7,63.5z"/>
	<path class="st0" d="M9.7,86.9l1.5,4.5l4.7,0c0.6,0,0.9,0.8,0.4,1.1l-3.8,2.8l1.4,4.5c0.2,0.6-0.5,1.1-1,0.7l-3.8-2.7l-3.8,2.7
		c-0.5,0.4-1.2-0.1-1-0.7l1.4-4.5l-3.8-2.8c-0.5-0.4-0.2-1.1,0.4-1.1l4.7,0l1.5-4.5C8.7,86.3,9.5,86.3,9.7,86.9z"/>
	<path class="st0" d="M9.7,110.3l1.5,4.5l4.7,0c0.6,0,0.9,0.8,0.4,1.1l-3.8,2.8l1.4,4.5c0.2,0.6-0.5,1.1-1,0.7l-3.8-2.7l-3.8,2.7
		c-0.5,0.4-1.2-0.1-1-0.7l1.4-4.5l-3.8-2.8c-0.5-0.4-0.2-1.1,0.4-1.1l4.7,0l1.5-4.5C8.7,109.7,9.5,109.7,9.7,110.3z"/>
	<path class="st0" d="M27.8,28.2l1.5,4.5l4.7,0c0.6,0,0.9,0.8,0.4,1.1l-3.8,2.8l1.4,4.5c0.2,0.6-0.5,1.1-1,0.7l-3.8-2.7l-3.8,2.7
		c-0.5,0.4-1.2-0.1-1-0.7l1.4-4.5l-3.8-2.8c-0.5-0.4-0.2-1.1,0.4-1.1l4.7,0l1.5-4.5C26.8,27.6,27.6,27.6,27.8,28.2z"/>
	<path class="st0" d="M27.8,51.6l1.5,4.5l4.7,0c0.6,0,0.9,0.8,0.4,1.1L30.6,60l1.4,4.5c0.2,0.6-0.5,1.1-1,0.7l-3.8-2.7l-3.8,2.7
		c-0.5,0.4-1.2-0.1-1-0.7l1.4-4.5l-3.8-2.8c-0.5-0.4-0.2-1.1,0.4-1.1l4.7,0l1.5-4.5C26.8,51,27.6,51,27.8,51.6z"/>
	<path class="st0" d="M27.8,75l1.5,4.5l4.7,0c0.6,0,0.9,0.8,0.4,1.1l-3.8,2.8l1.4,4.5c0.2,0.6-0.5,1.1-1,0.7l-3.8-2.7l-3.8,2.7
		c-0.5,0.4-1.2-0.1-1-0.7l1.4-4.5l-3.8-2.8c-0.5-0.4-0.2-1.1,0.4-1.1l4.7,0l1.5-4.5C26.8,74.4,27.6,74.4,27.8,75z"/>
	<path class="st0" d="M27.8,98.3l1.5,4.5l4.7,0c0.6,0,0.9,0.8,0.4,1.1l-3.8,2.8l1.4,4.5c0.2,0.6-0.5,1.1-1,0.7l-3.8-2.7l-3.8,2.7
		c-0.5,0.4-1.2-0.1-1-0.7l1.4-4.5l-3.8-2.8c-0.5-0.4-0.2-1.1,0.4-1.1l4.7,0l1.5-4.5C26.8,97.8,27.6,97.8,27.8,98.3z"/>
	<path class="st0" d="M46,16.7l1.5,4.5l4.7,0c0.6,0,0.9,0.8,0.4,1.1l-3.8,2.8l1.4,4.5c0.2,0.6-0.5,1.1-1,0.7l-3.8-2.7l-3.8,2.7
		c-0.5,0.4-1.2-0.1-1-0.7l1.4-4.5l-3.8-2.8c-0.5-0.4-0.2-1.1,0.4-1.1l4.7,0l1.5-4.5C45,16.2,45.8,16.2,46,16.7z"/>
	<path class="st0" d="M46,40.1l1.5,4.5l4.7,0c0.6,0,0.9,0.8,0.4,1.1l-3.8,2.8l1.4,4.5c0.2,0.6-0.5,1.1-1,0.7L45.4,51l-3.8,2.7
		c-0.5,0.4-1.2-0.1-1-0.7l1.4-4.5l-3.8-2.8c-0.5-0.4-0.2-1.1,0.4-1.1l4.7,0l1.5-4.5C45,39.5,45.8,39.5,46,40.1z"/>
	<path class="st0" d="M46,63.5l1.5,4.5l4.7,0c0.6,0,0.9,0.8,0.4,1.1L48.8,72l1.4,4.5c0.2,0.6-0.5,1.1-1,0.7l-3.8-2.7l-3.8,2.7
		c-0.5,0.4-1.2-0.1-1-0.7L42,72l-3.8-2.8C37.7,68.8,38,68,38.6,68l4.7,0l1.5-4.5C45,62.9,45.8,62.9,46,63.5z"/>
	<path class="st0" d="M46,86.9l1.5,4.5l4.7,0c0.6,0,0.9,0.8,0.4,1.1l-3.8,2.8l1.4,4.5c0.2,0.6-0.5,1.1-1,0.7l-3.8-2.7l-3.8,2.7
		c-0.5,0.4-1.2-0.1-1-0.7l1.4-4.5l-3.8-2.8c-0.5-0.4-0.2-1.1,0.4-1.1l4.7,0l1.5-4.5C45,86.3,45.8,86.3,46,86.9z"/>
	<path class="st0" d="M46,110.3l1.5,4.5l4.7,0c0.6,0,0.9,0.8,0.4,1.1l-3.8,2.8l1.4,4.5c0.2,0.6-0.5,1.1-1,0.7l-3.8-2.7l-3.8,2.7
		c-0.5,0.4-1.2-0.1-1-0.7l1.4-4.5l-3.8-2.8c-0.5-0.4-0.2-1.1,0.4-1.1l4.7,0l1.5-4.5C45,109.7,45.8,109.7,46,110.3z"/>
	<path class="st0" d="M64.1,28.2l1.5,4.5l4.7,0c0.6,0,0.9,0.8,0.4,1.1l-3.8,2.8l1.4,4.5c0.2,0.6-0.5,1.1-1,0.7l-3.8-2.7l-3.8,2.7
		c-0.5,0.4-1.2-0.1-1-0.7l1.4-4.5l-3.8-2.8c-0.5-0.4-0.2-1.1,0.4-1.1l4.7,0l1.5-4.5C63.1,27.6,63.9,27.6,64.1,28.2z"/>
	<path class="st0" d="M64.1,51.6l1.5,4.5l4.7,0c0.6,0,0.9,0.8,0.4,1.1L66.9,60l1.4,4.5c0.2,0.6-0.5,1.1-1,0.7l-3.8-2.7l-3.8,2.7
		c-0.5,0.4-1.2-0.1-1-0.7l1.4-4.5l-3.8-2.8c-0.5-0.4-0.2-1.1,0.4-1.1l4.7,0l1.5-4.5C63.1,51,63.9,51,64.1,51.6z"/>
	<path class="st0" d="M64.1,75l1.5,4.5l4.7,0c0.6,0,0.9,0.8,0.4,1.1l-3.8,2.8l1.4,4.5c0.2,0.6-0.5,1.1-1,0.7l-3.8-2.7l-3.8,2.7
		c-0.5,0.4-1.2-0.1-1-0.7l1.4-4.5l-3.8-2.8c-0.5-0.4-0.2-1.1,0.4-1.1l4.7,0l1.5-4.5C63.1,74.4,63.9,74.4,64.1,75z"/>
	<path class="st0" d="M64.1,98.3l1.5,4.5l4.7,0c0.6,0,0.9,0.8,0.4,1.1l-3.8,2.8l1.4,4.5c0.2,0.6-0.5,1.1-1,0.7l-3.8-2.7l-3.8,2.7
		c-0.5,0.4-1.2-0.1-1-0.7l1.4-4.5l-3.8-2.8c-0.5-0.4-0.2-1.1,0.4-1.1l4.7,0l1.5-4.5C63.1,97.8,63.9,97.8,64.1,98.3z"/>
	<path class="st0" d="M82.3,16.7l1.5,4.5l4.7,0c0.6,0,0.9,0.8,0.4,1.1l-3.8,2.8l1.4,4.5c0.2,0.6-0.5,1.1-1,0.7l-3.8-2.7l-3.8,2.7
		c-0.5,0.4-1.2-0.1-1-0.7l1.4-4.5l-3.8-2.8c-0.5-0.4-0.2-1.1,0.4-1.1l4.7,0l1.5-4.5C81.3,16.2,82.1,16.2,82.3,16.7z"/>
	<path class="st0" d="M82.3,40.1l1.5,4.5l4.7,0c0.6,0,0.9,0.8,0.4,1.1l-3.8,2.8l1.4,4.5c0.2,0.6-0.5,1.1-1,0.7L81.7,51l-3.8,2.7
		c-0.5,0.4-1.2-0.1-1-0.7l1.4-4.5l-3.8-2.8c-0.5-0.4-0.2-1.1,0.4-1.1l4.7,0l1.5-4.5C81.3,39.5,82.1,39.5,82.3,40.1z"/>
	<path class="st0" d="M82.3,63.5l1.5,4.5l4.7,0c0.6,0,0.9,0.8,0.4,1.1L85.1,72l1.4,4.5c0.2,0.6-0.5,1.1-1,0.7l-3.8-2.7l-3.8,2.7
		c-0.5,0.4-1.2-0.1-1-0.7l1.4-4.5l-3.8-2.8C74,68.8,74.3,68,74.9,68l4.7,0l1.5-4.5C81.3,62.9,82.1,62.9,82.3,63.5z"/>
	<path class="st0" d="M82.3,86.9l1.5,4.5l4.7,0c0.6,0,0.9,0.8,0.4,1.1l-3.8,2.8l1.4,4.5c0.2,0.6-0.5,1.1-1,0.7l-3.8-2.7l-3.8,2.7
		c-0.5,0.4-1.2-0.1-1-0.7l1.4-4.5l-3.8-2.8c-0.5-0.4-0.2-1.1,0.4-1.1l4.7,0l1.5-4.5C81.3,86.3,82.1,86.3,82.3,86.9z"/>
	<path class="st0" d="M82.3,110.3l1.5,4.5l4.7,0c0.6,0,0.9,0.8,0.4,1.1l-3.8,2.8l1.4,4.5c0.2,0.6-0.5,1.1-1,0.7l-3.8-2.7l-3.8,2.7
		c-0.5,0.4-1.2-0.1-1-0.7l1.4-4.5l-3.8-2.8c-0.5-0.4-0.2-1.1,0.4-1.1l4.7,0l1.5-4.5C81.3,109.7,82.1,109.7,82.3,110.3z"/>
	<path class="st0" d="M100.4,28.2l1.5,4.5l4.7,0c0.6,0,0.9,0.8,0.4,1.1l-3.8,2.8l1.4,4.5c0.2,0.6-0.5,1.1-1,0.7l-3.8-2.7L96,41.9
		c-0.5,0.4-1.2-0.1-1-0.7l1.4-4.5l-3.8-2.8c-0.5-0.4-0.2-1.1,0.4-1.1l4.7,0l1.5-4.5C99.4,27.6,100.2,27.6,100.4,28.2z"/>
	<path class="st0" d="M100.4,51.6l1.5,4.5l4.7,0c0.6,0,0.9,0.8,0.4,1.1l-3.8,2.8l1.4,4.5c0.2,0.6-0.5,1.1-1,0.7l-3.8-2.7L96,65.2
		c-0.5,0.4-1.2-0.1-1-0.7l1.4-4.5l-3.8-2.8c-0.5-0.4-0.2-1.1,0.4-1.1l4.7,0l1.5-4.5C99.4,51,100.2,51,100.4,51.6z"/>
	<path class="st0" d="M100.4,75l1.5,4.5l4.7,0c0.6,0,0.9,0.8,0.4,1.1l-3.8,2.8l1.4,4.5c0.2,0.6-0.5,1.1-1,0.7l-3.8-2.7L96,88.6
		c-0.5,0.4-1.2-0.1-1-0.7l1.4-4.5l-3.8-2.8c-0.5-0.4-0.2-1.1,0.4-1.1l4.7,0l1.5-4.5C99.4,74.4,100.2,74.4,100.4,75z"/>
	<path class="st0" d="M100.4,98.3l1.5,4.5l4.7,0c0.6,0,0.9,0.8,0.4,1.1l-3.8,2.8l1.4,4.5c0.2,0.6-0.5,1.1-1,0.7l-3.8-2.7L96,112
		c-0.5,0.4-1.2-0.1-1-0.7l1.4-4.5l-3.8-2.8c-0.5-0.4-0.2-1.1,0.4-1.1l4.7,0l1.5-4.5C99.4,97.8,100.2,97.8,100.4,98.3z"/>
	<path class="st0" d="M118.6,16.7l1.5,4.5l4.7,0c0.6,0,0.9,0.8,0.4,1.1l-3.8,2.8l1.4,4.5c0.2,0.6-0.5,1.1-1,0.7l-3.8-2.7l-3.8,2.7
		c-0.5,0.4-1.2-0.1-1-0.7l1.4-4.5l-3.8-2.8c-0.5-0.4-0.2-1.1,0.4-1.1l4.7,0l1.5-4.5C117.6,16.2,118.4,16.2,118.6,16.7z"/>
	<path class="st0" d="M118.6,40.1l1.5,4.5l4.7,0c0.6,0,0.9,0.8,0.4,1.1l-3.8,2.8l1.4,4.5c0.2,0.6-0.5,1.1-1,0.7L118,51l-3.8,2.7
		c-0.5,0.4-1.2-0.1-1-0.7l1.4-4.5l-3.8-2.8c-0.5-0.4-0.2-1.1,0.4-1.1l4.7,0l1.5-4.5C117.6,39.5,118.4,39.5,118.6,40.1z"/>
	<path class="st0" d="M118.6,63.5l1.5,4.5l4.7,0c0.6,0,0.9,0.8,0.4,1.1l-3.8,2.8l1.4,4.5c0.2,0.6-0.5,1.1-1,0.7l-3.8-2.7l-3.8,2.7
		c-0.5,0.4-1.2-0.1-1-0.7l1.4-4.5l-3.8-2.8c-0.5-0.4-0.2-1.1,0.4-1.1l4.7,0l1.5-4.5C117.6,62.9,118.4,62.9,118.6,63.5z"/>
	<path class="st0" d="M118.6,86.9l1.5,4.5l4.7,0c0.6,0,0.9,0.8,0.4,1.1l-3.8,2.8l1.4,4.5c0.2,0.6-0.5,1.1-1,0.7l-3.8-2.7l-3.8,2.7
		c-0.5,0.4-1.2-0.1-1-0.7l1.4-4.5l-3.8-2.8c-0.5-0.4-0.2-1.1,0.4-1.1l4.7,0l1.5-4.5C117.6,86.3,118.4,86.3,118.6,86.9z"/>
	<path class="st0" d="M118.6,110.3l1.5,4.5l4.7,0c0.6,0,0.9,0.8,0.4,1.1l-3.8,2.8l1.4,4.5c0.2,0.6-0.5,1.1-1,0.7l-3.8-2.7l-3.8,2.7
		c-0.5,0.4-1.2-0.1-1-0.7l1.4-4.5l-3.8-2.8c-0.5-0.4-0.2-1.1,0.4-1.1l4.7,0l1.5-4.5C117.6,109.7,118.4,109.7,118.6,110.3z"/>
</g>
</svg>
