<?xml version="1.0" encoding="utf-8"?>
<!-- Generator: Adobe Illustrator 23.0.6, SVG Export Plug-In . SVG Version: 6.00 Build 0)  -->
<svg version="1.1" id="Vrstva_1" xmlns="http://www.w3.org/2000/svg" xmlns:xlink="http://www.w3.org/1999/xlink" x="0px" y="0px"
	 viewBox="0 0 48 46" style="enable-background:new 0 0 48 46;" xml:space="preserve">
<style type="text/css">
	.st0{fill:#2C96F2;}
</style>
<path id="Path" class="st0" d="M47,34.7v-9.9h0c0-3-1.1-6-3-8.4c-2.6-3.1-6-4.7-10.4-4.7c-3.7,0-7.2,1.4-9.4,3.7
	c-1.3,1.3-2.3,2.8-2.9,4.5c-2-1.2-4.3-1.8-7-1.8c-3.7,0-7.2,1.4-9.4,3.7c-2.5,2.5-3.9,5.9-3.9,9.4c0,0.1,0,0.2,0,0.4h7.4
	c0-0.1,0-0.2,0-0.4c0-3.4,2.7-6.2,6-6.2c2.8,0,5.2,2.1,5.8,5v4.6h7.7v-9.5c0,0,0-0.2,0-0.4c0-3.4,2.7-6.2,6-6.2
	c3.3,0,5.9,2.8,5.9,6.2c0,0.1,0,0.3,0,0.3v9.4H47z"/>
</svg>
